ffmpeg version 4.2.4-1ubuntu0.1 Copyright (c) 2000-2020 the FFmpeg developers
  built with gcc 9 (Ubuntu 9.3.0-10ubuntu2)
  configuration: --prefix=/usr --extra-version=1ubuntu0.1 --toolchain=hardened --libdir=/usr/lib/x86_64-linux-gnu --incdir=/usr/include/x86_64-linux-gnu --arch=amd64 --enable-gpl --disable-stripping --enable-avresample --disable-filter=resample --enable-avisynth --enable-gnutls --enable-ladspa --enable-libaom --enable-libass --enable-libbluray --enable-libbs2b --enable-libcaca --enable-libcdio --enable-libcodec2 --enable-libflite --enable-libfontconfig --enable-libfreetype --enable-libfribidi --enable-libgme --enable-libgsm --enable-libjack --enable-libmp3lame --enable-libmysofa --enable-libopenjpeg --enable-libopenmpt --enable-libopus --enable-libpulse --enable-librsvg --enable-librubberband --enable-libshine --enable-libsnappy --enable-libsoxr --enable-libspeex --enable-libssh --enable-libtheora --enable-libtwolame --enable-libvidstab --enable-libvorbis --enable-libvpx --enable-libwavpack --enable-libwebp --enable-libx265 --enable-libxml2 --enable-libxvid --enable-libzmq --enable-libzvbi --enable-lv2 --enable-omx --enable-openal --enable-opencl --enable-opengl --enable-sdl2 --enable-libdc1394 --enable-libdrm --enable-libiec61883 --enable-nvenc --enable-chromaprint --enable-frei0r --enable-libx264 --enable-shared
  WARNING: library configuration mismatch
  avcodec     configuration: --prefix=/usr --extra-version=1ubuntu0.1 --toolchain=hardened --libdir=/usr/lib/x86_64-linux-gnu --incdir=/usr/include/x86_64-linux-gnu --arch=amd64 --enable-gpl --disable-stripping --enable-avresample --disable-filter=resample --enable-avisynth --enable-gnutls --enable-ladspa --enable-libaom --enable-libass --enable-libbluray --enable-libbs2b --enable-libcaca --enable-libcdio --enable-libcodec2 --enable-libflite --enable-libfontconfig --enable-libfreetype --enable-libfribidi --enable-libgme --enable-libgsm --enable-libjack --enable-libmp3lame --enable-libmysofa --enable-libopenjpeg --enable-libopenmpt --enable-libopus --enable-libpulse --enable-librsvg --enable-librubberband --enable-libshine --enable-libsnappy --enable-libsoxr --enable-libspeex --enable-libssh --enable-libtheora --enable-libtwolame --enable-libvidstab --enable-libvorbis --enable-libvpx --enable-libwavpack --enable-libwebp --enable-libx265 --enable-libxml2 --enable-libxvid --enable-libzmq --enable-libzvbi --enable-lv2 --enable-omx --enable-openal --enable-opencl --enable-opengl --enable-sdl2 --enable-libdc1394 --enable-libdrm --enable-libiec61883 --enable-nvenc --enable-chromaprint --enable-frei0r --enable-libx264 --enable-shared --enable-version3 --disable-doc --disable-programs --enable-libaribb24 --enable-liblensfun --enable-libopencore_amrnb --enable-libopencore_amrwb --enable-libtesseract --enable-libvo_amrwbenc
  libavutil      56. 31.100 / 56. 31.100
  libavcodec     58. 54.100 / 58. 54.100
  libavformat    58. 29.100 / 58. 29.100
  libavdevice    58.  8.100 / 58.  8.100
  libavfilter     7. 57.100 /  7. 57.100
  libavresample   4.  0.  0 /  4.  0.  0
  libswscale      5.  5.100 /  5.  5.100
  libswresample   3.  5.100 /  3.  5.100
  libpostproc    55.  5.100 / 55.  5.100
Input #0, image2pipe, from 'pipe:':
  Duration: N/A, bitrate: N/A
    Stream #0:0: Video: ppm, rgb24, 320x240, 20 fps, 20 tbr, 20 tbn, 20 tbc
Stream mapping:
  Stream #0:0 -> #0:0 (ppm (native) -> h264 (libx264))
[libx264 @ 0x55cfb99abf40] using cpu capabilities: MMX2 SSE2Fast SSSE3 SSE4.2 AVX FMA3 BMI2 AVX2
[libx264 @ 0x55cfb99abf40] profile High, level 1.3
[libx264 @ 0x55cfb99abf40] 264 - core 155 r2917 0a84d98 - H.264/MPEG-4 AVC codec - Copyleft 2003-2018 - http://www.videolan.org/x264.html - options: cabac=1 ref=3 deblock=1:0:0 analyse=0x3:0x113 me=hex subme=7 psy=1 psy_rd=1.00:0.00 mixed_ref=1 me_range=16 chroma_me=1 trellis=1 8x8dct=1 cqm=0 deadzone=21,11 fast_pskip=1 chroma_qp_offset=-2 threads=7 lookahead_threads=1 sliced_threads=0 nr=0 decimate=1 interlaced=0 bluray_compat=0 constrained_intra=0 bframes=3 b_pyramid=2 b_adapt=1 b_bias=0 direct=1 weightb=1 open_gop=0 weightp=2 keyint=250 keyint_min=20 scenecut=40 intra_refresh=0 rc_lookahead=40 rc=abr mbtree=1 bitrate=400 ratetol=1.0 qcomp=0.60 qpmin=0 qpmax=69 qpstep=4 ip_ratio=1.40 aq=1:1.00
Output #0, mp4, to './mission_records/49d7d48a-0ca6-4a3e-8ec3-2cdd52d275fc/video.mp4':
  Metadata:
    encoder         : Lavf58.29.100
    Stream #0:0: Video: h264 (libx264) (avc1 / 0x31637661), yuv420p, 320x240, q=-1--1, 400 kb/s, 20 fps, 10240 tbn, 20 tbc
    Metadata:
      encoder         : Lavc58.54.100 libx264
    Side data:
      cpb: bitrate max/min/avg: 0/0/400000 buffer size: 0 vbv_delay: -1
frame=   32 fps=0.0 q=0.0 size=       0kB time=00:00:00.00 bitrate=N/A speed=   0x    frame=   41 fps= 40 q=0.0 size=       0kB time=00:00:00.00 bitrate=N/A speed=   0x    frame=   50 fps= 33 q=0.0 size=       0kB time=00:00:00.00 bitrate=N/A speed=   0x    frame=   59 fps= 29 q=29.0 size=       0kB time=00:00:00.25 bitrate=   1.5kbits/s speed=0.121x    frame=   69 fps= 26 q=26.0 size=       0kB time=00:00:00.75 bitrate=   0.5kbits/s speed=0.286x    frame=   79 fps= 25 q=25.0 size=       0kB time=00:00:01.25 bitrate=   0.3kbits/s speed=0.394x    frame=   88 fps= 24 q=25.0 size=       0kB time=00:00:01.70 bitrate=   0.2kbits/s speed=0.462x    frame=   97 fps= 23 q=25.0 size=       0kB time=00:00:02.15 bitrate=   0.2kbits/s speed=0.514x    frame=  106 fps= 23 q=25.0 size=       0kB time=00:00:02.60 bitrate=   0.1kbits/s speed=0.555x    frame=  115 fps= 22 q=26.0 size=       0kB time=00:00:03.05 bitrate=   0.1kbits/s speed=0.588x    frame=  124 fps= 22 q=26.0 size=       0kB time=00:00:03.50 bitrate=   0.1kbits/s speed=0.612x    frame=  133 fps= 21 q=25.0 size=       0kB time=00:00:03.95 bitrate=   0.1kbits/s speed=0.635x    frame=  142 fps= 21 q=24.0 size=       0kB time=00:00:04.40 bitrate=   0.1kbits/s speed=0.651x    frame=  151 fps= 21 q=23.0 size=       0kB time=00:00:04.85 bitrate=   0.1kbits/s speed=0.668x    frame=  160 fps= 21 q=23.0 size=       0kB time=00:00:05.30 bitrate=   0.1kbits/s speed=0.682x    frame=  169 fps= 20 q=22.0 size=       0kB time=00:00:05.75 bitrate=   0.1kbits/s speed=0.692x    frame=  179 fps= 20 q=22.0 size=     256kB time=00:00:06.25 bitrate= 335.6kbits/s speed=0.706x    frame=  188 fps= 20 q=21.0 size=     256kB time=00:00:06.70 bitrate= 313.1kbits/s speed=0.717x    frame=  193 fps= 20 q=-1.0 Lsize=     376kB time=00:00:09.50 bitrate= 324.6kbits/s speed=0.974x    
video:373kB audio:0kB subtitle:0kB other streams:0kB global headers:0kB muxing overhead: 0.813312%
[libx264 @ 0x55cfb99abf40] frame I:1     Avg QP:23.68  size:  6164
[libx264 @ 0x55cfb99abf40] frame P:56    Avg QP:15.13  size:  4131
[libx264 @ 0x55cfb99abf40] frame B:136   Avg QP:19.92  size:  1060
[libx264 @ 0x55cfb99abf40] consecutive B-frames:  4.1%  3.1%  7.8% 85.0%
[libx264 @ 0x55cfb99abf40] mb I  I16..4: 20.0% 51.3% 28.7%
[libx264 @ 0x55cfb99abf40] mb P  I16..4:  3.0%  1.8%  1.2%  P16..4: 43.3% 13.0% 17.7%  0.0%  0.0%    skip:19.9%
[libx264 @ 0x55cfb99abf40] mb B  I16..4:  0.1%  0.0%  0.0%  B16..8: 32.1%  6.4%  3.1%  direct: 4.8%  skip:53.4%  L0:42.1% L1:52.5% BI: 5.4%
[libx264 @ 0x55cfb99abf40] final ratefactor: 17.37
[libx264 @ 0x55cfb99abf40] 8x8 transform intra:34.4% inter:47.0%
[libx264 @ 0x55cfb99abf40] coded y,uvDC,uvAC intra: 51.7% 44.5% 24.3% inter: 19.3% 17.0% 5.4%
[libx264 @ 0x55cfb99abf40] i16 v,h,dc,p:  6% 38% 55%  1%
[libx264 @ 0x55cfb99abf40] i8 v,h,dc,ddl,ddr,vr,hd,vl,hu:  7% 16% 23%  9%  9%  7% 11%  6% 12%
[libx264 @ 0x55cfb99abf40] i4 v,h,dc,ddl,ddr,vr,hd,vl,hu: 15% 30% 16%  5%  8%  5% 10%  5%  7%
[libx264 @ 0x55cfb99abf40] i8c dc,h,v,p: 51% 39%  8%  2%
[libx264 @ 0x55cfb99abf40] Weighted P-Frames: Y:17.9% UV:3.6%
[libx264 @ 0x55cfb99abf40] ref P L0: 79.0%  8.7%  8.8%  3.2%  0.3%
[libx264 @ 0x55cfb99abf40] ref B L0: 92.8%  6.4%  0.9%
[libx264 @ 0x55cfb99abf40] ref B L1: 94.2%  5.8%
[libx264 @ 0x55cfb99abf40] kb/s:316.42
